<?xml version="1.0" standalone="no"?><!DOCTYPE svg PUBLIC "-//W3C//DTD SVG 1.1//EN" "http://www.w3.org/Graphics/SVG/1.1/DTD/svg11.dtd"><svg t="1609923231267" class="icon" viewBox="0 0 1024 1024" version="1.1" xmlns="http://www.w3.org/2000/svg" p-id="9569" xmlns:xlink="http://www.w3.org/1999/xlink" width="32" height="32"><defs><style type="text/css"></style></defs><path d="M585.794065 810.842839V416.338581h128.495483l25.699097-131.534452H290.320516l25.666065 131.534452h141.345032v394.504258z" fill="#1296db" p-id="9570"></path><path d="M218.574452 241.564903A64.181677 64.181677 0 0 1 157.39871 287.380645c-6.573419 0-13.146839-1.057032-19.489033-3.138064-33.758968-10.999742-52.455226-48.028903-41.686709-82.580646a64.148645 64.148645 0 0 1 61.109677-45.815741 64.247742 64.247742 0 0 1 57.112774 35.575741c7.861677 15.624258 9.348129 33.428645 4.129033 50.142968m722.283354 29.563871c-59.788387-118.453677-161.06529-205.989161-285.167483-246.420645C505.063226-24.443871 339.736774 4.525419 213.454452 102.10271c-0.330323 0.264258-0.594581 0.627613-0.924904 0.891871a126.810839 126.810839 0 0 0-16.152774-6.672516 125.852903 125.852903 0 0 0-39.011097-6.27613c-56.154839 0-105.306839 36.830968-122.351483 91.631484-21.504 69.037419 15.888516 143.161806 83.373419 165.161291 12.684387 4.162065 25.798194 6.276129 39.011097 6.276129 56.154839 0 105.339871-36.830968 122.384516-91.598452a133.351226 133.351226 0 0 0-8.258065-100.285935 132.459355 132.459355 0 0 0-8.588387-14.435097c108.213677-78.352516 246.684903-100.748387 373.264516-59.491097 107.751226 35.146323 195.650065 111.120516 247.576775 213.949936a439.758452 439.758452 0 0 1 27.251612 330.520774c-34.320516 110.29471-108.577032 200.274581-209.028129 253.423484a411.813161 411.813161 0 0 1-322.890322 27.879225C216.79071 860.193032 101.739355 713.827097 85.949935 540.209548a32.503742 32.503742 0 0 0-34.948129-29.696 32.701935 32.701935 0 0 0-29.035354 35.773936c18.167742 199.97729 150.726194 368.540903 337.655742 429.485419 48.755613 15.921548 98.766452 23.816258 148.579096 23.816258 76.8 0 153.071484-18.828387 223.298065-55.923613 115.712-61.241806 201.232516-164.897032 240.739097-291.906064a506.318452 506.318452 0 0 0-31.380646-380.63071" fill="#1296db" p-id="9571"></path></svg>