<?xml version="1.0" standalone="no"?><!DOCTYPE svg PUBLIC "-//W3C//DTD SVG 1.1//EN" "http://www.w3.org/Graphics/SVG/1.1/DTD/svg11.dtd"><svg t="1610367321148" class="icon" viewBox="0 0 1223 1024" version="1.1" xmlns="http://www.w3.org/2000/svg" p-id="2636" width="38.21875" height="32" xmlns:xlink="http://www.w3.org/1999/xlink"><defs><style type="text/css"></style></defs><path d="M308.664319 164.583166h765.539063A84.415503 84.415503 0 0 1 1159.907671 248.998668v48.329487a84.415503 84.415503 0 0 1-85.704289 84.415502H308.664319V164.583166z" fill="#B5C7D9" p-id="2637"></path><path d="M279.666627 520.932578L19.331795 312.149197a50.907059 50.907059 0 0 1 0-79.260357l257.75726-219.093671A50.907059 50.907059 0 0 1 362.793344 53.103151v427.877052a50.907059 50.907059 0 0 1-83.126717 39.952375zM900.861624 873.415631H148.854818a84.415503 84.415503 0 0 1-85.704289-84.415503v-48.329486a84.415503 84.415503 0 0 1 84.415502-84.415503h753.295593v217.160492z" fill="#B5C7D9" p-id="2638"></path><path d="M943.391572 1011.960158l257.75726-208.78338a50.907059 50.907059 0 0 0 0-79.260358l-257.75726-219.093671a50.907059 50.907059 0 0 0-83.771109 39.307982v427.877052a50.907059 50.907059 0 0 0 83.771109 39.952375z" fill="#B5C7D9" p-id="2639"></path></svg>